<svg width="33" height="32" viewBox="0 0 33 32" fill="none" xmlns="http://www.w3.org/2000/svg">
<g clip-path="url(#clip0)">
<path d="M9.89478 10C10.16 10 10.4143 9.89464 10.6019 9.70711C10.7894 9.51957 10.8948 9.26522 10.8948 9C10.8948 8.73478 10.7894 8.48043 10.6019 8.29289C10.4143 8.10536 10.16 8 9.89478 8C9.62956 8 9.37521 8.10536 9.18767 8.29289C9.00013 8.48043 8.89478 8.73478 8.89478 9C8.89478 9.26522 9.00013 9.51957 9.18767 9.70711C9.37521 9.89464 9.62956 10 9.89478 10V10ZM6.89478 9C6.89478 9.26522 6.78942 9.51957 6.60188 9.70711C6.41435 9.89464 6.15999 10 5.89478 10C5.62956 10 5.37521 9.89464 5.18767 9.70711C5.00013 9.51957 4.89478 9.26522 4.89478 9C4.89478 8.73478 5.00013 8.48043 5.18767 8.29289C5.37521 8.10536 5.62956 8 5.89478 8C6.15999 8 6.41435 8.10536 6.60188 8.29289C6.78942 8.48043 6.89478 8.73478 6.89478 9V9Z" fill="#6F57A5"/>
<path d="M0.894775 8C0.894775 6.93913 1.3162 5.92172 2.06635 5.17157C2.81649 4.42143 3.83391 4 4.89478 4H28.8948C29.9556 4 30.9731 4.42143 31.7232 5.17157C32.4733 5.92172 32.8948 6.93913 32.8948 8V10C32.8948 11.0609 32.4733 12.0783 31.7232 12.8284C30.9731 13.5786 29.9556 14 28.8948 14H17.8948V20C18.6904 20 19.4535 20.3161 20.0161 20.8787C20.5787 21.4413 20.8948 22.2044 20.8948 23H31.8948C32.16 23 32.4143 23.1054 32.6019 23.2929C32.7894 23.4804 32.8948 23.7348 32.8948 24C32.8948 24.2652 32.7894 24.5196 32.6019 24.7071C32.4143 24.8946 32.16 25 31.8948 25H20.8948C20.8948 25.7956 20.5787 26.5587 20.0161 27.1213C19.4535 27.6839 18.6904 28 17.8948 28H15.8948C15.0991 28 14.3361 27.6839 13.7735 27.1213C13.2108 26.5587 12.8948 25.7956 12.8948 25H1.89478C1.62956 25 1.3752 24.8946 1.18767 24.7071C1.00013 24.5196 0.894775 24.2652 0.894775 24C0.894775 23.7348 1.00013 23.4804 1.18767 23.2929C1.3752 23.1054 1.62956 23 1.89478 23H12.8948C12.8948 22.2044 13.2108 21.4413 13.7735 20.8787C14.3361 20.3161 15.0991 20 15.8948 20V14H4.89478C3.83391 14 2.81649 13.5786 2.06635 12.8284C1.3162 12.0783 0.894775 11.0609 0.894775 10V8ZM2.89478 8V10C2.89478 10.5304 3.10549 11.0391 3.48056 11.4142C3.85563 11.7893 4.36434 12 4.89478 12H28.8948C29.4252 12 29.9339 11.7893 30.309 11.4142C30.6841 11.0391 30.8948 10.5304 30.8948 10V8C30.8948 7.46957 30.6841 6.96086 30.309 6.58579C29.9339 6.21071 29.4252 6 28.8948 6H4.89478C4.36434 6 3.85563 6.21071 3.48056 6.58579C3.10549 6.96086 2.89478 7.46957 2.89478 8V8ZM14.8948 23V25C14.8948 25.2652 15.0001 25.5196 15.1877 25.7071C15.3752 25.8946 15.6296 26 15.8948 26H17.8948C18.16 26 18.4143 25.8946 18.6019 25.7071C18.7894 25.5196 18.8948 25.2652 18.8948 25V23C18.8948 22.7348 18.7894 22.4804 18.6019 22.2929C18.4143 22.1054 18.16 22 17.8948 22H15.8948C15.6296 22 15.3752 22.1054 15.1877 22.2929C15.0001 22.4804 14.8948 22.7348 14.8948 23Z" fill="#6F57A5"/>
</g>
<defs>
<clipPath id="clip0">
<rect width="32" height="32" fill="white" transform="translate(0.894775)"/>
</clipPath>
</defs>
</svg>
