<svg width="33" height="32" viewBox="0 0 33 32" fill="none" xmlns="http://www.w3.org/2000/svg">
<path d="M11.5708 3.18C9.66596 3.70497 7.77408 4.2758 5.89679 4.892C5.72536 4.94753 5.57298 5.05009 5.457 5.18799C5.34102 5.32589 5.26611 5.4936 5.24079 5.672C4.13279 13.986 6.69279 20.052 9.74679 24.048C11.0398 25.7568 12.5816 27.2622 14.3208 28.514C15.0128 29.002 15.6248 29.354 16.1068 29.58C16.3468 29.694 16.5428 29.77 16.6928 29.816C16.7584 29.839 16.826 29.8558 16.8948 29.866C16.9627 29.855 17.0296 29.8382 17.0948 29.816C17.2468 29.77 17.4428 29.694 17.6828 29.58C18.1628 29.354 18.7768 29 19.4688 28.514C21.208 27.2621 22.7497 25.7568 24.0428 24.048C27.0968 20.054 29.6568 13.986 28.5488 5.672C28.5237 5.49351 28.4489 5.3257 28.3328 5.18776C28.2168 5.04982 28.0643 4.94732 27.8928 4.892C26.5908 4.466 24.3928 3.772 22.2188 3.182C19.9988 2.58 17.9568 2.134 16.8948 2.134C15.8348 2.134 13.7908 2.58 11.5708 3.182V3.18ZM11.0388 1.12C13.2088 0.53 15.5148 0 16.8948 0C18.2748 0 20.5808 0.53 22.7508 1.12C24.9708 1.72 27.2088 2.43 28.5248 2.86C29.075 3.0417 29.5628 3.37493 29.9322 3.8214C30.3015 4.26787 30.5374 4.80948 30.6128 5.384C31.8048 14.338 29.0388 20.974 25.6828 25.364C24.2597 27.242 22.5628 28.8957 20.6488 30.27C19.987 30.7456 19.2858 31.1637 18.5528 31.52C17.9928 31.784 17.3908 32 16.8948 32C16.3988 32 15.7988 31.784 15.2368 31.52C14.5038 31.1638 13.8026 30.7456 13.1408 30.27C11.2268 28.8957 9.52995 27.2419 8.10679 25.364C4.75079 20.974 1.98479 14.338 3.17679 5.384C3.25216 4.80948 3.48807 4.26787 3.85742 3.8214C4.22677 3.37493 4.71457 3.0417 5.26479 2.86C7.17517 2.23362 9.1004 1.65345 11.0388 1.12V1.12Z" fill="#6F57A5"/>
<path d="M22.6028 10.292C22.6959 10.3848 22.7698 10.4952 22.8202 10.6167C22.8707 10.7382 22.8966 10.8684 22.8966 11C22.8966 11.1315 22.8707 11.2617 22.8202 11.3832C22.7698 11.5047 22.6959 11.6151 22.6028 11.708L16.6028 17.708C16.5099 17.8011 16.3996 17.875 16.2781 17.9254C16.1566 17.9758 16.0264 18.0017 15.8948 18.0017C15.7633 18.0017 15.633 17.9758 15.5116 17.9254C15.3901 17.875 15.2797 17.8011 15.1868 17.708L12.1868 14.708C12.0938 14.615 12.0201 14.5046 11.9698 14.3831C11.9195 14.2616 11.8936 14.1314 11.8936 14C11.8936 13.8685 11.9195 13.7383 11.9698 13.6168C12.0201 13.4953 12.0938 13.3849 12.1868 13.292C12.2798 13.199 12.3902 13.1252 12.5117 13.0749C12.6331 13.0246 12.7633 12.9987 12.8948 12.9987C13.0263 12.9987 13.1565 13.0246 13.278 13.0749C13.3995 13.1252 13.5098 13.199 13.6028 13.292L15.8948 15.586L21.1868 10.292C21.2797 10.1988 21.3901 10.1249 21.5116 10.0745C21.633 10.0241 21.7633 9.99817 21.8948 9.99817C22.0264 9.99817 22.1566 10.0241 22.2781 10.0745C22.3996 10.1249 22.5099 10.1988 22.6028 10.292V10.292Z" fill="#6F57A5"/>
</svg>
