<svg width="32" height="32" viewBox="0 0 32 32" fill="none" xmlns="http://www.w3.org/2000/svg">
<path d="M22.6666 10.6666V9.33329C22.6666 5.65729 19.6759 2.66663 15.9999 2.66663C12.3239 2.66663 9.33325 5.65729 9.33325 9.33329V13.3333H7.99992C6.52925 13.3333 5.33325 14.5293 5.33325 16V26.6666C5.33325 28.1373 6.52925 29.3333 7.99992 29.3333H23.9999C25.4706 29.3333 26.6666 28.1373 26.6666 26.6666V16C26.6666 14.5293 25.4706 13.3333 23.9999 13.3333H11.9999V9.33329C11.9999 7.12796 13.7946 5.33329 15.9999 5.33329C18.2053 5.33329 19.9999 7.12796 19.9999 9.33329V10.6666H22.6666ZM23.9999 16L24.0026 26.6666H7.99992V16H23.9999Z" fill="#6F57A5"/>
</svg>
