<svg width="32" height="32" viewBox="0 0 32 32" fill="none" xmlns="http://www.w3.org/2000/svg">
<path d="M16.0001 2.66663C8.64808 2.66663 2.66675 8.64796 2.66675 16V21.524C2.66675 22.8893 3.86275 24 5.33341 24H6.66675C7.02037 24 7.35951 23.8595 7.60956 23.6094C7.85961 23.3594 8.00008 23.0202 8.00008 22.6666V15.8093C8.00008 15.4557 7.85961 15.1165 7.60956 14.8665C7.35951 14.6164 7.02037 14.476 6.66675 14.476H5.45608C6.19741 9.31596 10.6374 5.33329 16.0001 5.33329C21.3627 5.33329 25.8027 9.31596 26.5441 14.476H25.3334C24.9798 14.476 24.6407 14.6164 24.3906 14.8665C24.1406 15.1165 24.0001 15.4557 24.0001 15.8093V24C24.0001 25.4706 22.8041 26.6666 21.3334 26.6666H18.6667V25.3333H13.3334V29.3333H21.3334C24.2747 29.3333 26.6667 26.9413 26.6667 24C28.1374 24 29.3334 22.8893 29.3334 21.524V16C29.3334 8.64796 23.3521 2.66663 16.0001 2.66663Z" fill="#6F57A5"/>
</svg>
