<svg width="33" height="32" viewBox="0 0 33 32" fill="none" xmlns="http://www.w3.org/2000/svg">
<path d="M15.2947 6.40004C14.0739 6.40004 12.9347 6.74084 11.9635 7.33444C11.8632 6.7975 11.6802 6.27935 11.4211 5.79844C12.6392 5.12436 14.0121 4.77981 15.4041 4.79884C16.7961 4.81788 18.1591 5.19984 19.3583 5.90697C20.5575 6.6141 21.5514 7.62193 22.2417 8.83084C22.9321 10.0397 23.2951 11.4079 23.2947 12.8H27.2963C27.9326 12.8005 28.5426 13.0535 28.9924 13.5035C29.4421 13.9536 29.6947 14.5638 29.6947 15.2V24.8C29.6947 25.4366 29.4419 26.047 28.9918 26.4971C28.5417 26.9472 27.9313 27.2 27.2947 27.2H17.6947C17.0582 27.2 16.4478 26.9472 15.9977 26.4971C15.5476 26.047 15.2947 25.4366 15.2947 24.8V20.8C14.1818 20.8014 13.0808 20.5698 12.0627 20.12C12.0835 19.576 12.0947 19.0048 12.0947 18.4V18.344C13.0355 18.888 14.1283 19.2 15.2947 19.2V15.2C15.2947 14.5635 15.5476 13.9531 15.9977 13.503C16.4478 13.0529 17.0582 12.8 17.6947 12.8H21.6947C21.6947 11.1027 21.0205 9.47479 19.8202 8.27455C18.62 7.07432 16.9921 6.40004 15.2947 6.40004ZM23.1347 14.4C22.82 15.9369 22.0609 17.3476 20.9516 18.4569C19.8423 19.5662 18.4316 20.3253 16.8947 20.64V24.8C16.8947 25.0122 16.979 25.2157 17.1291 25.3657C17.2791 25.5158 17.4826 25.6 17.6947 25.6H27.2947C27.5069 25.6 27.7104 25.5158 27.8604 25.3657C28.0105 25.2157 28.0947 25.0122 28.0947 24.8V15.2C28.0947 14.9879 28.0105 14.7844 27.8604 14.6344C27.7104 14.4843 27.5069 14.4 27.2947 14.4H23.1347ZM21.4931 14.4H17.6947C17.4826 14.4 17.2791 14.4843 17.1291 14.6344C16.979 14.7844 16.8947 14.9879 16.8947 15.2V18.9984C18.0016 18.7117 19.0117 18.1341 19.8202 17.3255C20.6288 16.517 21.2064 15.5069 21.4931 14.4V14.4Z" fill="#6F57A5"/>
<path d="M8.22273 3.40001C8.3558 3.51597 8.44678 3.67268 8.48151 3.84574C8.51624 4.0188 8.49276 4.19849 8.41473 4.35681C8.40118 4.40362 8.39418 4.45208 8.39393 4.50081C8.39393 4.60161 8.41953 4.79361 8.66113 5.03361C8.77793 5.15041 8.86753 5.23361 8.96513 5.32481C9.04513 5.39841 9.12993 5.47521 9.23713 5.58081C9.44513 5.77921 9.66433 6.01281 9.86113 6.30561C10.2691 6.91841 10.4947 7.68481 10.4947 8.80001C10.4947 10.1648 9.98913 11.328 9.20033 12.0416L9.30273 12.16C9.75073 12.7104 10.0115 13.424 10.1747 14.128C10.4947 15.52 10.4947 17.1936 10.4947 18.36V18.4C10.4947 22.8592 9.88833 25.3888 9.22113 26.8352C8.88513 27.5632 8.52833 28.0272 8.21953 28.3184C8.09398 28.4389 7.95555 28.5451 7.80673 28.6352C7.73859 28.6762 7.66745 28.7121 7.59393 28.7424C7.59393 28.7424 7.41313 28.8 7.29473 28.8C7.17633 28.8 6.99553 28.7424 6.99553 28.7424C6.9212 28.7138 6.84992 28.6779 6.78273 28.6352C6.63391 28.5451 6.49547 28.4389 6.36993 28.3184C6.06113 28.0256 5.70433 27.5632 5.36833 26.8352C4.70113 25.3888 4.09473 22.8592 4.09473 18.4V18.36C4.09473 17.192 4.09473 15.52 4.41473 14.128C4.57793 13.424 4.83873 12.7104 5.28673 12.16C5.31873 12.12 5.35393 12.08 5.38913 12.0416C4.60033 11.328 4.09473 10.1648 4.09473 8.80001C4.09473 8.27841 4.23393 7.65601 4.42593 7.08161C4.61793 6.50561 4.88673 5.91041 5.19713 5.43041C5.56673 4.80641 6.08673 4.28321 6.48993 3.93121C6.71098 3.7368 6.94167 3.55364 7.18113 3.38241L7.22913 3.35041L7.24353 3.33921L7.24833 3.33601L7.25153 3.33441C7.39824 3.23661 7.57315 3.19002 7.74908 3.20189C7.925 3.21375 8.09207 3.2834 8.22433 3.40001H8.22273ZM7.29953 11.2C7.91233 11.1984 8.89473 10.512 8.89473 8.80001C8.89473 7.91521 8.72033 7.48161 8.52833 7.19361C8.41159 7.0254 8.27693 6.87035 8.12673 6.73121L7.92833 6.54561C7.79873 6.42401 7.64673 6.28321 7.52833 6.16641C7.35333 5.99324 7.20311 5.79671 7.08193 5.58241C6.87826 5.79655 6.69903 6.03267 6.54753 6.28641C6.32353 6.63041 6.10593 7.10241 5.94433 7.58881C5.77793 8.08481 5.69473 8.52321 5.69473 8.80001C5.69473 10.5152 6.67873 11.2 7.29473 11.2H7.29793H7.29953ZM6.52673 13.1712C6.30113 13.448 6.11073 13.8896 5.97473 14.488C5.69793 15.6848 5.69473 17.1888 5.69473 18.4C5.69473 22.7408 6.28833 25.0112 6.82113 26.1648C6.99713 26.544 7.16193 26.7968 7.29473 26.9648C7.42753 26.7968 7.59393 26.544 7.76833 26.1648C8.30113 25.0112 8.89473 22.7408 8.89473 18.4C8.89473 17.1888 8.89153 15.6848 8.61473 14.488C8.47713 13.8896 8.28833 13.448 8.06273 13.1712C7.97447 13.0516 7.85843 12.9553 7.72462 12.8907C7.59081 12.826 7.44326 12.7949 7.29473 12.8H7.29153C7.14351 12.7953 6.99655 12.8266 6.86332 12.8912C6.73009 12.9559 6.61457 13.052 6.52673 13.1712V13.1712Z" fill="#6F57A5"/>
</svg>
