<svg width="32" height="32" viewBox="0 0 32 32" fill="none" xmlns="http://www.w3.org/2000/svg">
<path d="M9.25333 18.7146C8.94267 19.5466 8.68 20.3146 8.44533 21.092C9.72533 20.1626 11.2467 19.5733 13.0027 19.3533C16.3533 18.9346 19.3307 16.7226 20.8373 13.9426L18.896 12.0026L20.78 10.116L22.1133 8.78129C22.6867 8.20796 23.3333 7.14929 24.0173 5.62396C16.56 6.77996 11.9933 11.3466 9.252 18.7146H9.25333ZM22.6667 12.0013L24 13.3333C22.6667 17.3333 18.6667 21.3333 13.3333 22C9.77467 22.4453 7.552 24.8893 6.664 29.3333H4C5.33333 21.3333 8 2.66663 28 2.66663C26.6667 6.66263 25.336 9.32796 24.004 10.6626L22.6667 12.0013Z" fill="#6F57A5"/>
</svg>
