<svg width="34" height="27" viewBox="0 0 34 27" fill="none" xmlns="http://www.w3.org/2000/svg">
<path d="M4.16086 11.0116L4.13062 11.1024L13.4131 13.0183V6.06522H13.0218V12.1739V12.7838L12.4237 12.6642L4.16086 11.0116ZM13.2174 0.5C9.84455 0.5 6.60983 1.83987 4.22485 4.22484C1.83988 6.60982 0.500011 9.84454 0.500011 13.2174C0.500011 16.5903 1.83988 19.825 4.22485 22.21C6.60983 24.5949 9.84455 25.9348 13.2174 25.9348C16.5903 25.9348 19.825 24.5949 22.21 22.21C24.5949 19.825 25.9348 16.5903 25.9348 13.2174C25.9348 9.84454 24.5949 6.60982 22.21 4.22484C19.825 1.83987 16.5903 0.5 13.2174 0.5ZM13.2174 0.891305C16.4865 0.891305 19.6217 2.18994 21.9333 4.50154C24.2449 6.81313 25.5435 9.94832 25.5435 13.2174C25.5435 16.4865 24.2449 19.6217 21.9333 21.9333C19.6217 24.2449 16.4865 25.5435 13.2174 25.5435C9.94833 25.5435 6.81314 24.2449 4.50154 21.9333C2.18995 19.6217 0.891315 16.4865 0.891315 13.2174C0.891315 9.94832 2.18995 6.81313 4.50154 4.50154C6.81314 2.18994 9.94833 0.891305 13.2174 0.891305Z" stroke="#6F57A5"/>
<circle cx="25.4209" cy="15.1053" r="7.97368" fill="white" stroke="#6F57A5"/>
<path d="M22.6268 11.3805H24.8114C25.1697 11.381 25.517 11.5336 25.776 11.811C26.0356 12.0892 26.1843 12.4697 26.1848 12.8699V13.1592C26.1843 13.5594 26.0356 13.94 25.776 14.2181C25.517 14.4956 25.1696 14.6482 24.8113 14.6486H22.9178H22.6678V14.8986V15.7682V16.0182H22.9178H25.1026V16.0979H22.9178H22.6678V16.3479V17.837H22.6268V16.3479V16.0979H22.3768H21.8152V16.0182H22.3768H22.6268V15.7682V14.8986V14.6486H22.3768H21.8152V14.5689H22.3768H22.6268V14.3189V11.3805ZM26.1437 13.1598V13.1595V12.8696V12.8693C26.1433 12.5011 26.0067 12.1449 25.7591 11.8796C25.511 11.6138 25.1708 11.4607 24.8119 11.4602H24.8116H22.9178H22.6678V11.7102V14.3189V14.5689H22.9178L24.8116 14.5689L24.8119 14.5689C25.1708 14.5684 25.511 14.4153 25.7591 14.1495C26.0067 13.8842 26.1433 13.528 26.1437 13.1598Z" fill="black" stroke="#6F57A5" stroke-width="0.5"/>
<path d="M31.4167 16.4402C30.7754 15.8587 29.7755 15.8967 29.1016 16.4402L24.0802 20.4565C23.4661 20.9511 22.6998 21.2174 21.9064 21.2174H15.4774C14.9991 21.2174 14.6078 20.8261 14.6078 20.3478C14.6078 19.8696 14.9991 19.4783 15.4774 19.4783H19.7326C20.5966 19.4783 21.401 18.8859 21.5422 18.0326C21.7216 16.9457 20.8847 16 19.825 16H11.1298C9.66246 16 8.24406 16.5054 7.10282 17.4293L4.57578 19.4783H1.56507C1.08684 19.4783 0.695557 19.8696 0.695557 20.3478V25.5652C0.695557 26.0435 1.08684 26.4348 1.56507 26.4348H20.9553C21.7433 26.4348 22.5096 26.1685 23.1291 25.6739L31.3461 19.0978C32.1721 18.4402 32.2373 17.1793 31.4167 16.4402Z" fill="white" stroke="#6F57A5"/>
</svg>
