<svg width="32" height="32" viewBox="0 0 32 32" fill="none" xmlns="http://www.w3.org/2000/svg">
<path d="M22.6528 1.64157C22.8542 1.70842 23.0207 1.85251 23.1158 2.04214C23.211 2.23177 23.2269 2.45142 23.16 2.65277L22.36 5.05277C22.293 5.25434 22.1486 5.42101 21.9587 5.51613C21.7687 5.61125 21.5488 5.62702 21.3472 5.55997C21.1457 5.49292 20.979 5.34855 20.8839 5.15862C20.7888 4.96868 20.773 4.74874 20.84 4.54717L21.64 2.14717C21.6733 2.04744 21.7259 1.95524 21.7948 1.87584C21.8637 1.79644 21.9476 1.73141 22.0416 1.68445C22.1357 1.6375 22.2381 1.60954 22.343 1.60218C22.4478 1.59482 22.5531 1.60821 22.6528 1.64157V1.64157ZM28.568 4.56637C28.6424 4.49199 28.7014 4.40369 28.7417 4.3065C28.7819 4.20932 28.8026 4.10516 28.8026 3.99997C28.8026 3.89478 28.7819 3.79062 28.7417 3.69344C28.7014 3.59625 28.6424 3.50795 28.568 3.43357C28.4937 3.35919 28.4054 3.30019 28.3082 3.25993C28.211 3.21968 28.1068 3.19896 28.0016 3.19896C27.8964 3.19896 27.7923 3.21968 27.6951 3.25993C27.5979 3.30019 27.5096 3.35919 27.4352 3.43357L24.2352 6.63357C24.1609 6.70785 24.1018 6.79605 24.0615 6.89313C24.0212 6.99022 24.0005 7.09429 24.0004 7.19941C24.0002 7.4117 24.0844 7.61535 24.2344 7.76557C24.3844 7.91579 24.588 8.00027 24.8003 8.00042C25.0126 8.00057 25.2162 7.91638 25.3664 7.76637L28.5664 4.56637H28.568ZM12.1712 5.03197C12.3946 4.56206 12.7292 4.15369 13.146 3.84226C13.5627 3.53083 14.0492 3.32572 14.5631 3.24471C15.0771 3.1637 15.603 3.20924 16.0954 3.37736C16.5878 3.54549 17.0318 3.83114 17.3888 4.20957L27.928 15.3776C28.2797 15.7502 28.5368 16.2018 28.6777 16.6945C28.8185 17.1871 28.839 17.7064 28.7374 18.2086C28.6358 18.7108 28.4151 19.1813 28.0938 19.5804C27.7725 19.9796 27.3601 20.2958 26.8912 20.5024L20.592 23.28C20.8255 24.1128 20.8632 24.9883 20.7021 25.838C20.5409 26.6878 20.1854 27.4888 19.6632 28.1783C19.1411 28.8678 18.4665 29.4271 17.6922 29.8125C16.9179 30.198 16.0649 30.399 15.2 30.4C14.2468 30.4005 13.3092 30.1575 12.4762 29.6941C11.6431 29.2307 10.9423 28.5622 10.44 27.752L8.52004 28.5968C8.07896 28.7913 7.58954 28.8484 7.11552 28.7608C6.6415 28.6732 6.20485 28.4449 5.86244 28.1056L3.90724 26.168C3.5537 25.8178 3.31775 25.3664 3.23204 24.8762C3.14633 24.386 3.2151 23.8813 3.42884 23.432L12.1712 5.03357V5.03197ZM11.9248 27.096C12.4559 27.8541 13.2334 28.4045 14.1248 28.6536C15.0163 28.9026 15.9665 28.8347 16.8135 28.4616C17.6606 28.0885 18.352 27.4332 18.7699 26.6073C19.1879 25.7815 19.3065 24.8363 19.1056 23.9328L11.9248 27.096V27.096ZM16.2256 5.30717C16.047 5.11819 15.8249 4.9756 15.5788 4.89176C15.3326 4.80791 15.0697 4.78534 14.8128 4.826C14.5559 4.86666 14.3129 4.96932 14.1046 5.12509C13.8963 5.28086 13.7292 5.48505 13.6176 5.71997L4.87364 24.12C4.80282 24.2696 4.78019 24.4376 4.80884 24.6006C4.8375 24.7637 4.91604 24.9138 5.03364 25.0304L6.98884 26.9664C7.10277 27.0794 7.24807 27.1556 7.40586 27.185C7.56366 27.2144 7.72664 27.1956 7.87364 27.1312L26.2448 19.04C26.4793 18.9368 26.6855 18.7788 26.8462 18.5794C27.0069 18.38 27.1173 18.1449 27.1683 17.8938C27.2192 17.6428 27.2092 17.3833 27.139 17.137C27.0688 16.8906 26.9405 16.6648 26.7648 16.4784L16.2256 5.31037V5.30717ZM27.2 9.59997C26.9879 9.59997 26.7844 9.68426 26.6343 9.83429C26.4843 9.98432 26.4 10.1878 26.4 10.4C26.4 10.6121 26.4843 10.8156 26.6343 10.9657C26.7844 11.1157 26.9879 11.2 27.2 11.2H29.6C29.8122 11.2 30.0157 11.1157 30.1657 10.9657C30.3158 10.8156 30.4 10.6121 30.4 10.4C30.4 10.1878 30.3158 9.98432 30.1657 9.83429C30.0157 9.68426 29.8122 9.59997 29.6 9.59997H27.2Z" fill="#6F57A5"/>
</svg>
