<svg width="29" height="29" viewBox="0 0 29 29" fill="none" xmlns="http://www.w3.org/2000/svg">
<g clip-path="url(#clip0)">
<path d="M12.0898 1.93909C6.48618 1.93909 1.9436 6.48166 1.9436 12.0852C1.9436 17.6888 6.48618 22.2314 12.0898 22.2314C17.6933 22.2314 22.2359 17.6888 22.2359 12.0852C22.2298 6.4842 17.6908 1.94519 12.0898 1.93909ZM12.0898 2.90539C15.0742 2.90774 17.8708 4.36227 19.5863 6.80441L18.3784 8.01228C18.0845 7.83442 17.748 7.73924 17.4044 7.73689C16.3371 7.73689 15.4718 8.60215 15.4718 9.66949C15.4735 10.0134 15.5681 10.3505 15.7458 10.645L12.5821 13.8086C11.983 13.4434 11.2302 13.4434 10.6311 13.8086L8.43376 11.6113C8.61138 11.3168 8.70601 10.9797 8.70771 10.6358C8.70903 9.57056 7.84661 8.70597 6.78139 8.70464C5.90042 8.70355 5.1307 9.29946 4.91111 10.1526H3.11862C4.03341 5.92828 7.7675 2.91173 12.0898 2.90539ZM18.3707 9.66949C18.3707 10.2032 17.9381 10.6358 17.4044 10.6358C16.8707 10.6358 16.4381 10.2032 16.4381 9.66949C16.4381 9.13579 16.8707 8.70319 17.4044 8.70319C17.9381 8.70319 18.3707 9.13579 18.3707 9.66949ZM12.5729 15.4673C12.5729 16.001 12.1403 16.4336 11.6066 16.4336C11.0729 16.4336 10.6403 16.001 10.6403 15.4673C10.6403 14.9336 11.0729 14.501 11.6066 14.501C12.1403 14.501 12.5729 14.9336 12.5729 15.4673ZM7.74141 10.6358C7.74141 11.1695 7.3088 11.6021 6.7751 11.6021C6.24141 11.6021 5.8088 11.1695 5.8088 10.6358C5.8088 10.1021 6.24141 9.66949 6.7751 9.66949C7.3088 9.66949 7.74141 10.1021 7.74141 10.6358ZM16.5501 20.1119C15.1857 20.8695 13.6505 21.2664 12.0898 21.265C7.02332 21.2685 2.91335 17.1642 2.9099 12.0977C2.90966 11.7708 2.92693 11.444 2.9616 11.1189H4.91111C5.13076 11.9695 5.89656 12.565 6.7751 12.5683C7.11905 12.5666 7.4561 12.472 7.75058 12.2944L9.94795 14.4917C9.77033 14.7862 9.6757 15.1233 9.67401 15.4672C9.67401 16.5346 10.5393 17.3998 11.6066 17.3998C12.6739 17.3998 13.5392 16.5346 13.5392 15.4672C13.5375 15.1233 13.4429 14.7862 13.2653 14.4917L16.4289 11.3281C16.7234 11.5057 17.0605 11.6003 17.4044 11.602C18.4717 11.602 19.337 10.7368 19.337 9.66943C19.3353 9.32549 19.2407 8.98843 19.0631 8.69395L20.1163 7.64116C22.5753 12.0697 20.9786 17.6531 16.5501 20.1119Z" fill="#6F57A5"/>
<path d="M24.1685 4.83842C25.047 4.8351 25.8128 4.23968 26.0325 3.38897H29V2.42267H26.0325C25.8128 1.57197 25.047 0.976545 24.1685 0.973223C23.1011 0.973223 22.2359 1.83848 22.2359 2.90582C22.2376 3.24977 22.3322 3.58682 22.5098 3.8813L21.6609 4.7302C17.5991 -0.561564 10.0166 -1.55866 4.72483 2.50312C-0.566935 6.5649 -1.56404 14.1475 2.49775 19.4393C6.33178 24.4343 13.3599 25.6459 18.6451 22.2231L20.1033 23.6813L20.7864 24.3645L24.6758 28.2538C25.665 29.243 27.2687 29.243 28.2579 28.2538C29.2471 27.2646 29.2471 25.6609 28.2579 24.6717L24.3685 20.7824L23.6853 20.0992L22.2272 18.6411C24.8156 14.6541 24.8156 9.51731 22.2272 5.53029L23.1935 4.56399C23.4878 4.74167 23.8247 4.83649 24.1685 4.83842ZM24.1685 1.93952C24.7022 1.93952 25.1348 2.37212 25.1348 2.90582C25.1348 3.43952 24.7022 3.87212 24.1685 3.87212C23.6348 3.87212 23.2022 3.43952 23.2022 2.90582C23.2022 2.37212 23.6348 1.93952 24.1685 1.93952ZM27.5747 25.3549C28.1935 25.9598 28.2048 26.9518 27.5999 27.5706C26.995 28.1894 26.0029 28.2007 25.3841 27.5958C25.3756 27.5875 25.3673 27.5792 25.359 27.5706L21.4696 23.6813L23.6853 21.4656L27.5747 25.3549ZM23.0022 20.7824L20.7864 22.9981L19.4491 21.6607C19.5172 21.6086 19.581 21.5511 19.6481 21.4974C19.7153 21.4438 19.7931 21.3796 19.8651 21.3192C19.9709 21.2303 20.0752 21.1404 20.1777 21.0481C20.2303 20.9998 20.2806 20.9515 20.3323 20.9032C20.5304 20.7176 20.7222 20.5258 20.9077 20.3277C20.956 20.276 21.0043 20.2258 21.0526 20.1731C21.1449 20.0707 21.2348 19.9663 21.3237 19.8605C21.3843 19.789 21.4437 19.7167 21.502 19.6436C21.5551 19.5769 21.6126 19.5131 21.6648 19.445L23.0022 20.7824ZM21.1285 18.5381C20.9763 18.7507 20.8193 18.959 20.6536 19.1595C20.6052 19.2179 20.5536 19.2745 20.5038 19.332C20.3559 19.504 20.2033 19.6708 20.0458 19.8325C19.9772 19.9033 19.9074 19.9731 19.8366 20.0417C19.6755 20.1992 19.5087 20.3519 19.336 20.4997C19.2785 20.548 19.222 20.6007 19.1635 20.6495C18.963 20.8152 18.7548 20.9723 18.5422 21.1244C13.5406 24.6976 6.58936 23.5397 3.01617 18.5381C-0.55703 13.5366 0.600899 6.58531 5.60247 3.01212C10.604 -0.561081 17.5553 0.596789 21.1285 5.59842C23.8934 9.46857 23.8934 14.668 21.1285 18.5381Z" fill="#6F57A5"/>
</g>
<defs>
<clipPath id="clip0">
<rect width="29" height="29" fill="white"/>
</clipPath>
</defs>
</svg>
