<svg width="32" height="32" viewBox="0 0 32 32" fill="none" xmlns="http://www.w3.org/2000/svg">
<g clip-path="url(#clip0)">
<path d="M10.2078 24.8903C8.36273 24.8903 6.86707 26.386 6.86707 28.231C6.86707 30.0761 8.3628 31.5717 10.2078 31.5717C12.0529 31.5717 13.5485 30.076 13.5485 28.231C13.5486 26.386 12.0529 24.8903 10.2078 24.8903ZM10.2078 30.087C9.18278 30.087 8.35186 29.2561 8.35186 28.2311C8.35186 27.206 9.18278 26.3751 10.2078 26.3751C11.2328 26.3751 12.0638 27.206 12.0638 28.2311C12.0638 29.2561 11.2328 30.087 10.2078 30.087Z" fill="#6F57A5"/>
<path d="M24.3134 24.8903C22.4683 24.8903 20.9727 26.386 20.9727 28.231C20.9727 30.0761 22.4684 31.5717 24.3134 31.5717C26.1584 31.5717 27.6541 30.076 27.6541 28.231C27.6541 26.386 26.1585 24.8903 24.3134 24.8903ZM24.3134 30.087C23.2884 30.087 22.4574 29.2561 22.4574 28.2311C22.4574 27.206 23.2884 26.3751 24.3134 26.3751C25.3384 26.3751 26.1693 27.206 26.1693 28.2311C26.1694 29.2561 25.3384 30.087 24.3134 30.087Z" fill="#6F57A5"/>
<path d="M31.8487 5.40244C31.6941 5.23355 31.4826 5.12783 31.2548 5.10545L7.08988 4.77138L6.42173 2.72977C5.95103 1.36499 4.67299 0.44362 3.22941 0.428345H0.742396C0.332369 0.428345 0 0.760713 0 1.17074C0 1.58076 0.332369 1.91313 0.742396 1.91313H3.22941C4.0366 1.93097 4.74738 2.44927 5.01119 3.21234L9.72539 17.4292L9.35423 18.2829C8.94022 19.3505 9.06456 20.5521 9.6883 21.5123C10.3061 22.4554 11.3454 23.0374 12.4723 23.0713H26.9119C27.3219 23.0713 27.6543 22.739 27.6543 22.3289C27.6543 21.9189 27.3219 21.5866 26.9119 21.5866H12.4722C11.8358 21.5706 11.25 21.2359 10.9132 20.6957C10.5801 20.1621 10.5117 19.5047 10.7276 18.9139L11.0246 18.2457L26.652 16.6125C28.3686 16.4234 29.7806 15.1749 30.1784 13.4944L31.9602 6.03336C32.0405 5.8185 31.9978 5.57686 31.8487 5.40244ZM28.7307 13.1604C28.4897 14.2422 27.5712 15.0401 26.4664 15.1277L11.0246 16.7239L7.57245 6.25617L30.3268 6.59024L28.7307 13.1604Z" fill="#6F57A5"/>
</g>
<defs>
<clipPath id="clip0">
<rect width="32" height="32" fill="white"/>
</clipPath>
</defs>
</svg>
