<svg width="32" height="32" viewBox="0 0 32 32" fill="none" xmlns="http://www.w3.org/2000/svg">
<g clip-path="url(#clip0)">
<path d="M2.87476 4.32439C2.87476 4.80733 3.26626 5.19883 3.74919 5.19883C4.23213 5.19883 4.62363 4.80733 4.62363 4.32439C4.62363 3.84145 4.23213 3.44995 3.74913 3.44995C3.26619 3.44995 2.87476 3.84145 2.87476 4.32439V4.32439Z" fill="#6F57A5"/>
<path d="M6.43926 5.19883C6.9222 5.19883 7.31369 4.80733 7.31369 4.32439C7.31369 3.84145 6.9222 3.44995 6.43926 3.44995C5.95632 3.44995 5.56482 3.84145 5.56482 4.32439C5.56482 4.80733 5.95632 5.19883 6.43926 5.19883Z" fill="#6F57A5"/>
<path d="M9.1292 5.19883C9.61214 5.19883 10.0036 4.80733 10.0036 4.32439C10.0036 3.84145 9.61214 3.44995 9.1292 3.44995C8.64626 3.44995 8.25476 3.84145 8.25476 4.32439C8.25476 4.80733 8.64626 5.19883 9.1292 5.19883Z" fill="#6F57A5"/>
<path d="M8.17535 17.2109C8.36216 17.2109 8.53885 17.0987 8.6121 16.9145L11.2257 10.3432C11.3217 10.102 11.2039 9.82885 10.9627 9.73291C10.7217 9.63716 10.4484 9.75473 10.3525 9.99591L7.73885 16.5672C7.64291 16.8084 7.76066 17.0815 8.00185 17.1775C8.05879 17.2001 8.11754 17.2109 8.17535 17.2109Z" fill="#6F57A5"/>
<path d="M13.2734 16.8324C13.3475 16.8754 13.4285 16.8958 13.5084 16.8958C13.6705 16.8958 13.8284 16.8117 13.9155 16.6614L15.6705 13.6314C15.7564 13.4831 15.7548 13.2999 15.6663 13.1532L13.9112 10.2421C13.7773 10.0198 13.4884 9.94837 13.2662 10.0823C13.0439 10.2163 12.9724 10.5051 13.1064 10.7273L14.718 13.4006L13.1022 16.1903C12.9721 16.4149 13.0487 16.7024 13.2734 16.8324V16.8324Z" fill="#6F57A5"/>
<path d="M5.91093 16.1903L4.29506 13.4006L5.90668 10.7273C6.04068 10.505 5.96918 10.2163 5.74687 10.0823C5.52481 9.94839 5.23587 10.0198 5.10187 10.2421L3.34681 13.1532C3.25831 13.2999 3.25674 13.4831 3.34256 13.6313L5.09762 16.6613C5.18475 16.8118 5.34256 16.8958 5.50468 16.8958C5.58462 16.8958 5.66568 16.8753 5.73975 16.8324C5.96443 16.7023 6.041 16.4148 5.91093 16.1903Z" fill="#6F57A5"/>
<path d="M23.5645 23.0451C23.3104 22.9931 23.062 23.1569 23.0099 23.4112C22.835 24.2659 22.0736 24.8863 21.1994 24.8863C20.1805 24.8863 19.3515 24.0573 19.3515 23.0383C19.3515 22.0193 20.1805 21.1903 21.1994 21.1903C21.6514 21.1903 22.0864 21.3552 22.4244 21.6546C22.6186 21.8266 22.9157 21.8087 23.0877 21.6144C23.2598 21.4202 23.2419 21.1232 23.0476 20.9511C22.5377 20.4993 21.8813 20.2505 21.1995 20.2505C19.6623 20.2505 18.4117 21.5011 18.4117 23.0383C18.4117 24.5755 19.6623 25.8261 21.1995 25.8261C22.518 25.8261 23.6667 24.8897 23.9307 23.5997C23.9827 23.3454 23.8187 23.0971 23.5645 23.0451V23.0451Z" fill="#6F57A5"/>
<path d="M28.4406 10.7926C27.5874 10.4441 26.6097 10.8547 26.2612 11.7079C26.0924 12.1211 26.0946 12.5754 26.2676 12.9871C26.4404 13.3987 26.6852 13.6459 27.1765 13.8872C27.8868 14.2359 29.0288 13.8431 29.3558 12.972C29.6427 12.2077 29.3128 11.1182 28.4406 10.7926ZM27.8085 13.074C27.4038 13.074 27.0756 12.7459 27.0756 12.3411C27.0756 11.9364 27.4038 11.6082 27.8085 11.6082C28.2133 11.6082 28.5414 11.9364 28.5414 12.3411C28.5414 12.7459 28.2133 13.074 27.8085 13.074Z" fill="#6F57A5"/>
<path d="M31.5628 12.5754L31.2804 12.46C31.2836 12.3686 31.2831 12.2771 31.279 12.1857L31.5602 12.0676C31.9177 11.9175 32.0864 11.5046 31.9363 11.147L31.5503 10.2279C31.4066 9.92891 31.0836 9.70254 30.6297 9.85179L30.3485 9.96985C30.2861 9.90298 30.2211 9.83854 30.1536 9.77673L30.2688 9.4946C30.3782 9.24316 30.293 8.7361 29.8838 8.5776L28.9609 8.2006C28.7096 8.09123 28.2024 8.1766 28.044 8.58567L27.9287 8.86798C27.8373 8.86479 27.7458 8.86529 27.6544 8.86941L27.5363 8.58829C27.4636 8.41504 27.3278 8.28054 27.1539 8.20948C27.0291 8.15854 26.8955 8.14523 26.7659 8.16835V3.58404C26.7659 2.25023 25.6807 1.16504 24.3469 1.16504H23.362C23.1024 1.16504 22.8921 1.37541 22.8921 1.63491C22.8921 1.89441 23.1025 2.10479 23.362 2.10479H24.3469C25.1626 2.10479 25.8261 2.76835 25.8261 3.58398V6.54398H0.939812V5.74898V3.58398C0.939812 2.76835 1.60337 2.10479 2.419 2.10479H21.1759C21.4355 2.10479 21.6458 1.89441 21.6458 1.63491C21.6458 1.37541 21.4354 1.16504 21.1759 1.16504H2.419C1.08519 1.1651 0 2.25023 0 3.58404V23.3264C0 24.6602 1.08519 25.7454 2.419 25.7454H4.18525C4.44481 25.7454 4.65513 25.535 4.65513 25.2755C4.65513 25.016 4.44475 24.8057 4.18525 24.8057H2.419C1.60337 24.8057 0.939812 24.1421 0.939812 23.3265V7.48379H25.8262V8.5436L25.6964 8.5981C25.3391 8.74823 25.1704 9.16123 25.3204 9.51866L25.4385 9.79991C25.3716 9.86235 25.3072 9.92735 25.2454 9.99479L24.9631 9.87948C24.6044 9.73279 24.1929 9.90541 24.0462 10.2645L23.6693 11.1873C23.5598 11.4387 23.6452 11.9459 24.0544 12.1042L24.3366 12.2195C24.3335 12.311 24.3339 12.4025 24.3381 12.4939L24.0569 12.612C23.7579 12.7559 23.5316 13.0789 23.6808 13.5327L24.0667 14.4517C24.2106 14.7507 24.5334 14.9771 24.9874 14.8279L25.2686 14.7097C25.3311 14.7767 25.396 14.841 25.4635 14.9029L25.3482 15.1852C25.2016 15.5442 25.3744 15.9554 25.7332 16.102L25.8262 16.14V16.69C25.6917 16.6155 25.54 16.5755 25.3821 16.5755C25.1364 16.5755 24.9053 16.6713 24.7315 16.845L24.0946 17.482C23.7696 17.3123 23.4305 17.1718 23.0811 17.0619V16.1614C23.0811 15.6541 22.6684 15.2414 22.1611 15.2414H20.2379C19.7307 15.2414 19.3179 15.6541 19.3179 16.1614V17.0619C18.9684 17.1719 18.6296 17.3123 18.3045 17.482L17.6676 16.845C17.3089 16.4864 16.7254 16.4863 16.3665 16.845L15.0066 18.205C14.6479 18.5637 14.6479 19.1474 15.0066 19.506L15.6435 20.143C15.4738 20.468 15.3334 20.807 15.2235 21.1564H14.323C13.8157 21.1564 13.403 21.5691 13.403 22.0764V23.9996C13.403 24.3463 13.5959 24.6486 13.8799 24.8054H6.35456C6.095 24.8054 5.88469 25.0158 5.88469 25.2753C5.88469 25.5348 6.09506 25.7452 6.35456 25.7452H15.5504C15.5806 25.8081 15.6109 25.871 15.6433 25.933L15.0064 26.57C14.8326 26.7437 14.7369 26.9748 14.7369 27.2205C14.7369 27.4663 14.8327 27.6973 15.0064 27.871L16.3663 29.231C16.7252 29.5899 17.3088 29.5898 17.6674 29.231L18.3043 28.594C18.6294 28.7637 18.9684 28.9042 19.3178 29.0141V29.9147C19.3178 30.4219 19.7305 30.8346 20.2377 30.8346H22.1609C22.6682 30.8346 23.0809 30.4219 23.0809 29.9147V29.0144C23.4304 28.9045 23.7693 28.764 24.0944 28.5943L24.7313 29.2313C24.9051 29.405 25.1362 29.5008 25.3819 29.5008C25.6276 29.5008 25.8587 29.405 26.0324 29.2313L27.3923 27.8714C27.566 27.6976 27.6618 27.4665 27.6618 27.2208C27.6618 26.975 27.5661 26.744 27.3923 26.5702L26.7553 25.9333C26.925 25.6083 27.0654 25.2694 27.1754 24.9199H28.0759C28.5831 24.9199 28.9959 24.5072 28.9959 23.9999V22.0766C28.9959 21.5694 28.5831 21.1567 28.0759 21.1567H27.1754C27.0654 20.8071 26.9249 20.4682 26.7553 20.1432L27.3925 19.5062C27.7512 19.1475 27.7512 18.5639 27.3925 18.2052L26.766 17.5787V16.5134C26.9967 16.578 27.4338 16.456 27.573 16.0942L27.6883 15.8119C27.7796 15.8151 27.8712 15.8146 27.9627 15.8105L28.0808 16.0919C28.231 16.4494 28.6439 16.6179 29.0014 16.4678L29.9204 16.0818C30.2194 15.938 30.4459 15.615 30.2966 15.1612L30.1786 14.8799C30.2455 14.8175 30.3099 14.7525 30.3717 14.685L30.654 14.8004C30.9054 14.9097 31.4125 14.8244 31.5709 14.4153L31.9479 13.4924C32.0944 13.1334 31.9216 12.7221 31.5628 12.5754V12.5754ZM26.8201 22.0964H28.0563V23.98H26.8201C26.6046 23.98 26.4167 24.1267 26.3643 24.3358C26.2377 24.8415 26.0373 25.3249 25.7688 25.7725C25.6579 25.9574 25.6871 26.194 25.8396 26.3465L26.7139 27.2209L25.3819 28.5528L24.5076 27.6784C24.3552 27.526 24.1186 27.4967 23.9336 27.6077C23.4859 27.8762 23.0025 28.0765 22.4969 28.2032C22.2878 28.2555 22.1411 28.4434 22.1411 28.659V29.8952H20.2575V28.659C20.2575 28.4434 20.1108 28.2555 19.9017 28.2032C19.3962 28.0766 18.9129 27.8763 18.4651 27.6077C18.2801 27.4968 18.0435 27.526 17.8911 27.6784L17.0168 28.5528L15.6847 27.2209L16.5591 26.3465C16.7116 26.194 16.7407 25.9574 16.6298 25.7725C16.3612 25.3248 16.1609 24.8414 16.0344 24.3359C15.982 24.1267 15.7941 23.9801 15.5786 23.9801H14.3424V22.0965H15.5786C15.7941 22.0965 15.982 21.9498 16.0344 21.7407C16.1609 21.2352 16.3612 20.7519 16.6298 20.3041C16.7407 20.1192 16.7116 19.8826 16.5591 19.7301L15.6847 18.8557L17.0167 17.5238L17.8911 18.3982C18.0436 18.5506 18.2801 18.5798 18.4651 18.4689C18.9128 18.2004 19.3961 18 19.9017 17.8734C20.1108 17.8211 20.2575 17.6332 20.2575 17.4176V16.1814H22.1411V17.4176C22.1411 17.6332 22.2878 17.8211 22.4969 17.8734C23.0026 18 23.4859 18.2004 23.9336 18.4689C24.1185 18.5798 24.3551 18.5506 24.5076 18.3982L25.3819 17.5238L26.7139 18.8557L25.8395 19.7301C25.6871 19.8825 25.6579 20.1192 25.7688 20.3041C26.0373 20.7516 26.2376 21.2349 26.3643 21.7407C26.4167 21.9498 26.6046 22.0964 26.8201 22.0964V22.0964ZM30.7903 13.8408L30.4066 13.6841C30.207 13.6025 29.9776 13.6673 29.8501 13.841C29.7034 14.0409 29.5283 14.2176 29.3295 14.3665C29.1569 14.4957 29.0944 14.7258 29.1779 14.9245L29.3384 15.3069L28.8556 15.5097L28.695 15.1274C28.6116 14.9285 28.4035 14.8122 28.1904 14.8449C27.9451 14.8826 27.6963 14.8839 27.4508 14.8487C27.2372 14.8179 27.0306 14.9366 26.9491 15.1361L26.7924 15.5198L26.3076 15.3217L26.4643 14.9381C26.5458 14.7385 26.4811 14.5092 26.3073 14.3816C26.1076 14.235 25.9308 14.0599 25.7819 13.861C25.6527 13.6885 25.4227 13.6259 25.2238 13.7095L24.8416 13.87L24.6388 13.3872L25.0211 13.2266C25.2199 13.1431 25.3363 12.9351 25.3036 12.722C25.2659 12.4765 25.2646 12.2277 25.2997 11.9824C25.3304 11.769 25.2119 11.5622 25.0123 11.4807L24.6287 11.3239L24.8267 10.8391L25.2104 10.9959C25.4098 11.0774 25.6393 11.0127 25.7669 10.8389C25.9137 10.6391 26.0887 10.4624 26.2874 10.3135C26.4601 10.1843 26.5225 9.95429 26.4391 9.75548L26.2785 9.37316L26.7614 9.17035L26.922 9.55266C27.0055 9.75148 27.2135 9.86798 27.4266 9.83517C27.6721 9.79742 27.9209 9.79623 28.1661 9.83135C28.3796 9.86204 28.5862 9.74341 28.6678 9.54391L28.8245 9.16029L29.3093 9.35829L29.1526 9.74198C29.0711 9.94148 29.1359 10.1709 29.3096 10.2985C29.5095 10.4452 29.6863 10.6204 29.8349 10.819C29.9641 10.9915 30.1941 11.0542 30.393 10.9706L30.7753 10.81L30.9781 11.2929L30.5958 11.4535C30.3971 11.537 30.2806 11.745 30.3133 11.9581C30.351 12.2035 30.3523 12.4523 30.3172 12.6977C30.2866 12.9111 30.4051 13.1179 30.6046 13.1994L30.9883 13.3561L30.7903 13.8408Z" fill="#6F57A5"/>
</g>
<defs>
<clipPath id="clip0">
<rect width="32" height="32" fill="white"/>
</clipPath>
</defs>
</svg>
